<?xml version="1.0" encoding="UTF-8"?>
<!DOCTYPE svg PUBLIC "-//W3C//DTD SVG 1.1//EN"
    "http://www.w3.org/Graphics/SVG/1.1/DTD/svg11.dtd"><svg xmlns="http://www.w3.org/2000/svg" height="103.8462" stroke-opacity="1" viewBox="0 0 100 104" font-size="1" width="100.0000" xmlns:xlink="http://www.w3.org/1999/xlink" stroke="rgb(0,0,0)" version="1.1"><defs></defs><defs></defs><g stroke-linejoin="round" stroke-opacity="1.0" fill-opacity="1.0" stroke="rgb(30,30,30)" stroke-width="0.5" fill="rgb(0,116,217)" stroke-linecap="round" stroke-miterlimit="10.0"><path d="M 74.3590,51.2821 h 25.6410 v 25.6410 h -25.6410 v -25.6410 Z"/></g><defs></defs><g stroke-linejoin="round" stroke-opacity="1.0" fill-opacity="1.0" stroke="rgb(30,30,30)" stroke-width="0.5" fill="rgb(0,116,217)" stroke-linecap="round" stroke-miterlimit="10.0"><path d="M 48.7179,51.2821 h 25.6410 v 25.6410 h -25.6410 v -25.6410 Z"/></g><defs></defs><g stroke-linejoin="round" stroke-opacity="1.0" fill-opacity="1.0" stroke="rgb(30,30,30)" stroke-width="0.5" fill="rgb(0,116,217)" stroke-linecap="round" stroke-miterlimit="10.0"><path d="M 23.0769,51.2821 h 25.6410 v 25.6410 h -25.6410 v -25.6410 Z"/></g><defs></defs><g stroke-linejoin="round" stroke-opacity="1.0" fill-opacity="1.0" stroke="rgb(30,30,30)" stroke-width="0.5" fill="rgb(0,116,217)" stroke-linecap="round" stroke-miterlimit="10.0"><path d="M 74.3590,25.6410 h 25.6410 v 25.6410 h -25.6410 v -25.6410 Z"/></g><defs></defs><g stroke-linejoin="round" stroke-opacity="1.0" fill-opacity="1.0" stroke="rgb(30,30,30)" stroke-width="0.5" fill="rgb(0,116,217)" stroke-linecap="round" stroke-miterlimit="10.0"><path d="M 48.7179,25.6410 h 25.6410 v 25.6410 h -25.6410 v -25.6410 Z"/></g><defs></defs><g stroke-linejoin="round" stroke-opacity="1.0" fill-opacity="1.0" stroke="rgb(30,30,30)" stroke-width="0.5" fill="rgb(0,116,217)" stroke-linecap="round" stroke-miterlimit="10.0"><path d="M 23.0769,25.6410 h 25.6410 v 25.6410 h -25.6410 v -25.6410 Z"/></g><defs></defs><g stroke-linejoin="round" stroke-opacity="1.0" fill-opacity="1.0" stroke="rgb(30,30,30)" stroke-width="0.5" fill="rgb(0,116,217)" stroke-linecap="round" stroke-miterlimit="10.0"><path d="M 74.3590,0.0000 h 25.6410 v 25.6410 h -25.6410 v -25.6410 Z"/></g><defs></defs><g stroke-linejoin="round" stroke-opacity="1.0" fill-opacity="1.0" stroke="rgb(30,30,30)" stroke-width="0.5" fill="rgb(0,116,217)" stroke-linecap="round" stroke-miterlimit="10.0"><path d="M 48.7179,0.0000 h 25.6410 v 25.6410 h -25.6410 v -25.6410 Z"/></g><defs></defs><g stroke-linejoin="round" stroke-opacity="1.0" fill-opacity="1.0" stroke="rgb(30,30,30)" stroke-width="0.5" fill="rgb(0,116,217)" stroke-linecap="round" stroke-miterlimit="10.0"><path d="M 23.0769,0.0000 h 25.6410 v 25.6410 h -25.6410 v -25.6410 Z"/></g><defs></defs><g stroke-linejoin="round" stroke-opacity="1.0" fill-opacity="1.0" stroke="rgb(30,30,30)" stroke-width="0.5" fill="rgb(255,220,0)" stroke-linecap="round" stroke-miterlimit="10.0"><path d="M 58.9744,94.8718 h 25.6410 l -7.6923,8.9744 h -25.6410 l 7.6923,-8.9744 Z"/></g><defs></defs><g stroke-linejoin="round" stroke-opacity="1.0" fill-opacity="1.0" stroke="rgb(30,30,30)" stroke-width="0.5" fill="rgb(255,220,0)" stroke-linecap="round" stroke-miterlimit="10.0"><path d="M 33.3333,94.8718 h 25.6410 l -7.6923,8.9744 h -25.6410 l 7.6923,-8.9744 Z"/></g><defs></defs><g stroke-linejoin="round" stroke-opacity="1.0" fill-opacity="1.0" stroke="rgb(30,30,30)" stroke-width="0.5" fill="rgb(255,220,0)" stroke-linecap="round" stroke-miterlimit="10.0"><path d="M 7.6923,94.8718 h 25.6410 l -7.6923,8.9744 h -25.6410 l 7.6923,-8.9744 Z"/></g><defs></defs><g stroke-linejoin="round" stroke-opacity="1.0" fill-opacity="1.0" stroke="rgb(30,30,30)" stroke-width="0.5" fill="rgb(255,220,0)" stroke-linecap="round" stroke-miterlimit="10.0"><path d="M 66.6667,85.8974 h 25.6410 l -7.6923,8.9744 h -25.6410 l 7.6923,-8.9744 Z"/></g><defs></defs><g stroke-linejoin="round" stroke-opacity="1.0" fill-opacity="1.0" stroke="rgb(30,30,30)" stroke-width="0.5" fill="rgb(255,220,0)" stroke-linecap="round" stroke-miterlimit="10.0"><path d="M 41.0256,85.8974 h 25.6410 l -7.6923,8.9744 h -25.6410 l 7.6923,-8.9744 Z"/></g><defs></defs><g stroke-linejoin="round" stroke-opacity="1.0" fill-opacity="1.0" stroke="rgb(30,30,30)" stroke-width="0.5" fill="rgb(255,220,0)" stroke-linecap="round" stroke-miterlimit="10.0"><path d="M 15.3846,85.8974 h 25.6410 l -7.6923,8.9744 h -25.6410 l 7.6923,-8.9744 Z"/></g><defs></defs><g stroke-linejoin="round" stroke-opacity="1.0" fill-opacity="1.0" stroke="rgb(30,30,30)" stroke-width="0.5" fill="rgb(255,220,0)" stroke-linecap="round" stroke-miterlimit="10.0"><path d="M 74.3590,76.9231 h 25.6410 l -7.6923,8.9744 h -25.6410 l 7.6923,-8.9744 Z"/></g><defs></defs><g stroke-linejoin="round" stroke-opacity="1.0" fill-opacity="1.0" stroke="rgb(30,30,30)" stroke-width="0.5" fill="rgb(255,220,0)" stroke-linecap="round" stroke-miterlimit="10.0"><path d="M 48.7179,76.9231 h 25.6410 l -7.6923,8.9744 h -25.6410 l 7.6923,-8.9744 Z"/></g><defs></defs><g stroke-linejoin="round" stroke-opacity="1.0" fill-opacity="1.0" stroke="rgb(30,30,30)" stroke-width="0.5" fill="rgb(255,220,0)" stroke-linecap="round" stroke-miterlimit="10.0"><path d="M 23.0769,76.9231 h 25.6410 l -7.6923,8.9744 h -25.6410 l 7.6923,-8.9744 Z"/></g><defs></defs><g stroke-linejoin="round" stroke-opacity="1.0" fill-opacity="1.0" stroke="rgb(30,30,30)" stroke-width="0.5" fill="rgb(255,133,27)" stroke-linecap="round" stroke-miterlimit="10.0"><path d="M 7.6923,43.5897 l -7.6923,8.9744 v -25.6410 l 7.6923,-8.9744 v 25.6410 Z"/></g><defs></defs><g stroke-linejoin="round" stroke-opacity="1.0" fill-opacity="1.0" stroke="rgb(30,30,30)" stroke-width="0.5" fill="rgb(255,133,27)" stroke-linecap="round" stroke-miterlimit="10.0"><path d="M 15.3846,34.6154 l -7.6923,8.9744 v -25.6410 l 7.6923,-8.9744 v 25.6410 Z"/></g><defs></defs><g stroke-linejoin="round" stroke-opacity="1.0" fill-opacity="1.0" stroke="rgb(30,30,30)" stroke-width="0.5" fill="rgb(255,133,27)" stroke-linecap="round" stroke-miterlimit="10.0"><path d="M 23.0769,25.6410 l -7.6923,8.9744 v -25.6410 l 7.6923,-8.9744 v 25.6410 Z"/></g><defs></defs><g stroke-linejoin="round" stroke-opacity="1.0" fill-opacity="1.0" stroke="rgb(30,30,30)" stroke-width="0.5" fill="rgb(255,133,27)" stroke-linecap="round" stroke-miterlimit="10.0"><path d="M 7.6923,69.2308 l -7.6923,8.9744 v -25.6410 l 7.6923,-8.9744 v 25.6410 Z"/></g><defs></defs><g stroke-linejoin="round" stroke-opacity="1.0" fill-opacity="1.0" stroke="rgb(30,30,30)" stroke-width="0.5" fill="rgb(255,133,27)" stroke-linecap="round" stroke-miterlimit="10.0"><path d="M 15.3846,60.2564 l -7.6923,8.9744 v -25.6410 l 7.6923,-8.9744 v 25.6410 Z"/></g><defs></defs><g stroke-linejoin="round" stroke-opacity="1.0" fill-opacity="1.0" stroke="rgb(30,30,30)" stroke-width="0.5" fill="rgb(255,133,27)" stroke-linecap="round" stroke-miterlimit="10.0"><path d="M 23.0769,51.2821 l -7.6923,8.9744 v -25.6410 l 7.6923,-8.9744 v 25.6410 Z"/></g><defs></defs><g stroke-linejoin="round" stroke-opacity="1.0" fill-opacity="1.0" stroke="rgb(30,30,30)" stroke-width="0.5" fill="rgb(255,133,27)" stroke-linecap="round" stroke-miterlimit="10.0"><path d="M 7.6923,94.8718 l -7.6923,8.9744 v -25.6410 l 7.6923,-8.9744 v 25.6410 Z"/></g><defs></defs><g stroke-linejoin="round" stroke-opacity="1.0" fill-opacity="1.0" stroke="rgb(30,30,30)" stroke-width="0.5" fill="rgb(255,133,27)" stroke-linecap="round" stroke-miterlimit="10.0"><path d="M 15.3846,85.8974 l -7.6923,8.9744 v -25.6410 l 7.6923,-8.9744 v 25.6410 Z"/></g><defs></defs><g stroke-linejoin="round" stroke-opacity="1.0" fill-opacity="1.0" stroke="rgb(30,30,30)" stroke-width="0.5" fill="rgb(255,133,27)" stroke-linecap="round" stroke-miterlimit="10.0"><path d="M 23.0769,76.9231 l -7.6923,8.9744 v -25.6410 l 7.6923,-8.9744 v 25.6410 Z"/></g><defs></defs><g stroke-linejoin="round" stroke-opacity="1.0" fill-opacity="1.0" stroke="rgb(30,30,30)" stroke-width="0.5" fill="rgb(255,65,54)" stroke-linecap="round" stroke-miterlimit="10.0"><path d="M 92.3077,34.6154 l 7.6923,-8.9744 v -25.6410 l -7.6923,8.9744 v 25.6410 Z"/></g><defs></defs><g stroke-linejoin="round" stroke-opacity="1.0" fill-opacity="1.0" stroke="rgb(30,30,30)" stroke-width="0.5" fill="rgb(255,65,54)" stroke-linecap="round" stroke-miterlimit="10.0"><path d="M 84.6154,43.5897 l 7.6923,-8.9744 v -25.6410 l -7.6923,8.9744 v 25.6410 Z"/></g><defs></defs><g stroke-linejoin="round" stroke-opacity="1.0" fill-opacity="1.0" stroke="rgb(30,30,30)" stroke-width="0.5" fill="rgb(255,65,54)" stroke-linecap="round" stroke-miterlimit="10.0"><path d="M 76.9231,52.5641 l 7.6923,-8.9744 v -25.6410 l -7.6923,8.9744 v 25.6410 Z"/></g><defs></defs><g stroke-linejoin="round" stroke-opacity="1.0" fill-opacity="1.0" stroke="rgb(30,30,30)" stroke-width="0.5" fill="rgb(255,65,54)" stroke-linecap="round" stroke-miterlimit="10.0"><path d="M 92.3077,60.2564 l 7.6923,-8.9744 v -25.6410 l -7.6923,8.9744 v 25.6410 Z"/></g><defs></defs><g stroke-linejoin="round" stroke-opacity="1.0" fill-opacity="1.0" stroke="rgb(30,30,30)" stroke-width="0.5" fill="rgb(255,65,54)" stroke-linecap="round" stroke-miterlimit="10.0"><path d="M 84.6154,69.2308 l 7.6923,-8.9744 v -25.6410 l -7.6923,8.9744 v 25.6410 Z"/></g><defs></defs><g stroke-linejoin="round" stroke-opacity="1.0" fill-opacity="1.0" stroke="rgb(30,30,30)" stroke-width="0.5" fill="rgb(255,65,54)" stroke-linecap="round" stroke-miterlimit="10.0"><path d="M 76.9231,78.2051 l 7.6923,-8.9744 v -25.6410 l -7.6923,8.9744 v 25.6410 Z"/></g><defs></defs><g stroke-linejoin="round" stroke-opacity="1.0" fill-opacity="1.0" stroke="rgb(30,30,30)" stroke-width="0.5" fill="rgb(255,65,54)" stroke-linecap="round" stroke-miterlimit="10.0"><path d="M 92.3077,85.8974 l 7.6923,-8.9744 v -25.6410 l -7.6923,8.9744 v 25.6410 Z"/></g><defs></defs><g stroke-linejoin="round" stroke-opacity="1.0" fill-opacity="1.0" stroke="rgb(30,30,30)" stroke-width="0.5" fill="rgb(255,65,54)" stroke-linecap="round" stroke-miterlimit="10.0"><path d="M 84.6154,94.8718 l 7.6923,-8.9744 v -25.6410 l -7.6923,8.9744 v 25.6410 Z"/></g><defs></defs><g stroke-linejoin="round" stroke-opacity="1.0" fill-opacity="1.0" stroke="rgb(30,30,30)" stroke-width="0.5" fill="rgb(255,65,54)" stroke-linecap="round" stroke-miterlimit="10.0"><path d="M 76.9231,103.8462 l 7.6923,-8.9744 v -25.6410 l -7.6923,8.9744 v 25.6410 Z"/></g><defs></defs><g stroke-linejoin="round" stroke-opacity="1.0" fill-opacity="1.0" stroke="rgb(30,30,30)" stroke-width="0.5" fill="rgb(255,255,255)" stroke-linecap="round" stroke-miterlimit="10.0"><path d="M 66.6667,8.9744 h 25.6410 l 7.6923,-8.9744 h -25.6410 l -7.6923,8.9744 Z"/></g><defs></defs><g stroke-linejoin="round" stroke-opacity="1.0" fill-opacity="1.0" stroke="rgb(30,30,30)" stroke-width="0.5" fill="rgb(255,255,255)" stroke-linecap="round" stroke-miterlimit="10.0"><path d="M 41.0256,8.9744 h 25.6410 l 7.6923,-8.9744 h -25.6410 l -7.6923,8.9744 Z"/></g><defs></defs><g stroke-linejoin="round" stroke-opacity="1.0" fill-opacity="1.0" stroke="rgb(30,30,30)" stroke-width="0.5" fill="rgb(255,255,255)" stroke-linecap="round" stroke-miterlimit="10.0"><path d="M 15.3846,8.9744 h 25.6410 l 7.6923,-8.9744 h -25.6410 l -7.6923,8.9744 Z"/></g><defs></defs><g stroke-linejoin="round" stroke-opacity="1.0" fill-opacity="1.0" stroke="rgb(30,30,30)" stroke-width="0.5" fill="rgb(255,255,255)" stroke-linecap="round" stroke-miterlimit="10.0"><path d="M 58.9744,17.9487 h 25.6410 l 7.6923,-8.9744 h -25.6410 l -7.6923,8.9744 Z"/></g><defs></defs><g stroke-linejoin="round" stroke-opacity="1.0" fill-opacity="1.0" stroke="rgb(30,30,30)" stroke-width="0.5" fill="rgb(255,255,255)" stroke-linecap="round" stroke-miterlimit="10.0"><path d="M 33.3333,17.9487 h 25.6410 l 7.6923,-8.9744 h -25.6410 l -7.6923,8.9744 Z"/></g><defs></defs><g stroke-linejoin="round" stroke-opacity="1.0" fill-opacity="1.0" stroke="rgb(30,30,30)" stroke-width="0.5" fill="rgb(255,255,255)" stroke-linecap="round" stroke-miterlimit="10.0"><path d="M 7.6923,17.9487 h 25.6410 l 7.6923,-8.9744 h -25.6410 l -7.6923,8.9744 Z"/></g><defs></defs><g stroke-linejoin="round" stroke-opacity="1.0" fill-opacity="1.0" stroke="rgb(30,30,30)" stroke-width="0.5" fill="rgb(255,255,255)" stroke-linecap="round" stroke-miterlimit="10.0"><path d="M 51.2821,26.9231 h 25.6410 l 7.6923,-8.9744 h -25.6410 l -7.6923,8.9744 Z"/></g><defs></defs><g stroke-linejoin="round" stroke-opacity="1.0" fill-opacity="1.0" stroke="rgb(30,30,30)" stroke-width="0.5" fill="rgb(255,255,255)" stroke-linecap="round" stroke-miterlimit="10.0"><path d="M 25.6410,26.9231 h 25.6410 l 7.6923,-8.9744 h -25.6410 l -7.6923,8.9744 Z"/></g><defs></defs><g stroke-linejoin="round" stroke-opacity="1.0" fill-opacity="1.0" stroke="rgb(30,30,30)" stroke-width="0.5" fill="rgb(255,255,255)" stroke-linecap="round" stroke-miterlimit="10.0"><path d="M 0.0000,26.9231 h 25.6410 l 7.6923,-8.9744 h -25.6410 l -7.6923,8.9744 Z"/></g><defs></defs><g stroke-linejoin="round" stroke-opacity="1.0" fill-opacity="1.0" stroke="rgb(30,30,30)" stroke-width="0.5" fill="rgb(61,153,112)" stroke-linecap="round" stroke-miterlimit="10.0"><path d="M 51.2821,52.5641 h 25.6410 v -25.6410 h -25.6410 v 25.6410 Z"/></g><defs></defs><g stroke-linejoin="round" stroke-opacity="1.0" fill-opacity="1.0" stroke="rgb(30,30,30)" stroke-width="0.5" fill="rgb(61,153,112)" stroke-linecap="round" stroke-miterlimit="10.0"><path d="M 25.6410,52.5641 h 25.6410 v -25.6410 h -25.6410 v 25.6410 Z"/></g><defs></defs><g stroke-linejoin="round" stroke-opacity="1.0" fill-opacity="1.0" stroke="rgb(30,30,30)" stroke-width="0.5" fill="rgb(61,153,112)" stroke-linecap="round" stroke-miterlimit="10.0"><path d="M 0.0000,52.5641 h 25.6410 v -25.6410 h -25.6410 v 25.6410 Z"/></g><defs></defs><g stroke-linejoin="round" stroke-opacity="1.0" fill-opacity="1.0" stroke="rgb(30,30,30)" stroke-width="0.5" fill="rgb(61,153,112)" stroke-linecap="round" stroke-miterlimit="10.0"><path d="M 51.2821,78.2051 h 25.6410 v -25.6410 h -25.6410 v 25.6410 Z"/></g><defs></defs><g stroke-linejoin="round" stroke-opacity="1.0" fill-opacity="1.0" stroke="rgb(30,30,30)" stroke-width="0.5" fill="rgb(61,153,112)" stroke-linecap="round" stroke-miterlimit="10.0"><path d="M 25.6410,78.2051 h 25.6410 v -25.6410 h -25.6410 v 25.6410 Z"/></g><defs></defs><g stroke-linejoin="round" stroke-opacity="1.0" fill-opacity="1.0" stroke="rgb(30,30,30)" stroke-width="0.5" fill="rgb(61,153,112)" stroke-linecap="round" stroke-miterlimit="10.0"><path d="M 0.0000,78.2051 h 25.6410 v -25.6410 h -25.6410 v 25.6410 Z"/></g><defs></defs><g stroke-linejoin="round" stroke-opacity="1.0" fill-opacity="1.0" stroke="rgb(30,30,30)" stroke-width="0.5" fill="rgb(61,153,112)" stroke-linecap="round" stroke-miterlimit="10.0"><path d="M 51.2821,103.8462 h 25.6410 v -25.6410 h -25.6410 v 25.6410 Z"/></g><defs></defs><g stroke-linejoin="round" stroke-opacity="1.0" fill-opacity="1.0" stroke="rgb(30,30,30)" stroke-width="0.5" fill="rgb(61,153,112)" stroke-linecap="round" stroke-miterlimit="10.0"><path d="M 25.6410,103.8462 h 25.6410 v -25.6410 h -25.6410 v 25.6410 Z"/></g><defs></defs><g stroke-linejoin="round" stroke-opacity="1.0" fill-opacity="1.0" stroke="rgb(30,30,30)" stroke-width="0.5" fill="rgb(61,153,112)" stroke-linecap="round" stroke-miterlimit="10.0"><path d="M 0.0000,103.8462 h 25.6410 v -25.6410 h -25.6410 v 25.6410 Z"/></g></svg>